<svg xmlns="http://www.w3.org/2000/svg" fill="currentColor" class="bi bi-book" viewBox="0 0 16 16">
  <path d="M1 2.828c.885-.37 2.154-.769 3.388-.893 1.33-.134 2.458.063 3.112.752v9.746c-.935-.53-2.12-.603-3.213-.493-1.18.12-2.37.461-3.287.811V2.828zm7.5-.141c.654-.689 1.782-.886 3.112-.752 1.234.124 2.503.523 3.388.893v9.923c-.918-.35-2.107-.692-3.287-.81-1.094-.111-2.278-.039-3.213.492V2.687zM8 1.783C7.015.936 5.587.81 4.287.94c-1.514.153-3.042.672-3.994 1.105A.5.5 0 0 0 0 2.5v11a.5.5 0 0 0 .707.455c.882-.4 2.303-.881 3.68-1.02 1.409-.142 2.59.087 3.223.877a.5.5 0 0 0 .78 0c.633-.79 1.814-1.019 3.222-.877 1.378.139 2.8.62 3.681 1.02A.5.5 0 0 0 16 13.5v-11a.5.5 0 0 0-.293-.455c-.952-.433-2.48-.952-3.994-1.105C10.413.809 8.985.936 8 1.783z"/>
  <path d="M11.813 10.081c0 .657-.666 1.188-1.487 1.188-.82 0-1.486-.531-1.486-1.188 0-.658.666-1.189 1.486-1.189.821 0 1.487.531 1.487 1.189Z"/>
  <path fill-rule="evenodd" d="M11.813 4.135v5.946h-.594V4.135h.594Z"/>
  <path d="M11.219 4.028c0-.284.2-.527.478-.583l1.783-.356c.368-.074.712.207.712.582v1.058l-2.973.595V4.028Z"/>
  <path fill-rule="evenodd" d="M1.464 9.765c0-.184.149-.333.333-.333h2.332c.257 0 .417.277.289.5-.06.103-.17.166-.289.166H1.797c-.184 0-.333-.149-.333-.333Zm0-2.666c0-.184.149-.333.333-.333h4.998c.256 0 .417.278.288.5-.059.103-.169.167-.288.167H1.797c-.184 0-.333-.15-.333-.334Zm0-2.665c0-.184.149-.333.333-.333h4.998c.256 0 .417.277.288.499-.059.104-.169.167-.288.167H1.797c-.184 0-.333-.149-.333-.333Z"/>
</svg>
